<svg width="128" height="156" viewBox="0 0 128 156" fill="none" xmlns="http://www.w3.org/2000/svg">
<path d="M64.2867 81.01C66.3367 85.36 68.6767 89.6 70.3467 94.09C71.3467 96.77 72.5367 99.16 74.2167 101.47C78.4967 107.3 78.3967 107.37 82.4467 101.37C88.4867 92.41 100.997 87.79 110.787 90.77C117.377 92.78 125.047 101.64 124.297 108.39C123.187 118.48 115.957 126.28 105.707 127.51C97.3767 128.52 89.5367 127.17 82.9767 121.48C80.5567 119.38 79.5867 119.43 77.4167 122.32C71.7767 129.87 69.9967 139.55 63.0067 146.4C57.9167 151.4 52.6467 155.05 45.4367 155.63C32.0967 156.71 21.0867 143.79 22.7667 129.07C23.2267 125.04 24.1067 121.34 21.7667 117.2C19.5267 113.24 22.4967 108.03 26.7767 106.15C31.0467 104.28 36.0766 105.9 38.2266 109.83C40.8266 114.58 39.6667 119.05 34.9567 122.27C32.9067 123.67 29.6567 123.61 29.5667 127.28C29.4367 132.44 28.2666 137.54 31.9166 142.31C37.5766 149.71 46.1966 151.61 53.1966 146.33C60.1566 141.07 64.2867 133.63 68.3467 126.16C68.8267 125.28 69.2467 124.38 69.7067 123.49C74.7767 113.74 74.0667 109.36 67.1367 100.71C62.9467 95.49 60.9067 89.03 58.6867 82.76C60.2867 81.34 62.4367 81.65 64.2867 81V81.01ZM98.9567 121.31C106.067 121.42 110.727 119.93 114.277 115.98C117.697 112.17 118.317 106.61 116.087 102.5C113.757 98.22 107.827 95.69 101.777 96.57C93.2767 97.81 88.3967 103.95 83.7767 110.3C82.8567 111.57 82.6567 112.9 84.2667 114.17C89.1767 118.05 94.3867 121.09 98.9667 121.29L98.9567 121.31ZM36.2767 115.51C36.2167 111.35 33.0967 108.47 29.6567 108.76C26.2667 109.05 24.6366 111.24 24.6966 114.44C24.7566 118.17 27.0066 120.41 30.6366 120.34C33.9366 120.27 36.0167 118.19 36.2767 115.52V115.51Z" fill="#3F73CE"/>
<path d="M65.2353 81.01C67.3776 85.3779 69.8229 89.6353 71.5681 94.1438C72.6131 96.8348 73.8567 99.2346 75.6123 101.554C80.085 107.408 79.9805 107.478 84.2128 101.454C90.5247 92.4569 103.598 87.8179 113.829 90.8101C120.715 92.8284 128.73 101.725 127.947 108.503C126.787 118.634 119.231 126.466 108.52 127.701C99.8149 128.715 91.622 127.36 84.7666 121.646C82.2377 119.538 81.224 119.588 78.9564 122.49C73.0625 130.071 71.2023 139.791 63.8977 146.669C58.5785 151.689 53.0713 155.354 45.5367 155.937C31.5962 157.021 20.0906 144.048 21.8462 129.267C22.3269 125.221 23.2465 121.506 20.8012 117.349C18.4603 113.372 21.564 108.141 26.0367 106.253C30.4989 104.376 35.7553 106.002 38.0021 109.948C40.7192 114.718 39.507 119.206 34.5849 122.44C32.4427 123.845 29.0464 123.785 28.9523 127.47C28.8165 132.651 27.5938 137.772 31.4081 142.562C37.3229 149.992 46.3309 151.9 53.646 146.598C60.9193 141.317 65.2353 133.846 69.4781 126.345C69.9797 125.462 70.4185 124.558 70.8993 123.665C76.1975 113.874 75.4555 109.476 68.2136 100.791C63.835 95.5495 61.7031 89.063 59.3832 82.7672C61.0552 81.3414 63.302 81.6527 65.2353 81V81.01ZM101.466 121.476C108.896 121.586 113.766 120.09 117.476 116.124C121.05 112.298 121.698 106.715 119.367 102.588C116.932 98.2907 110.735 95.7503 104.413 96.634C95.5303 97.8791 90.4306 104.044 85.6026 110.42C84.6412 111.696 84.4322 113.031 86.1147 114.306C91.2457 118.202 96.6903 121.255 101.476 121.455L101.466 121.476ZM35.9644 115.652C35.9017 111.475 32.6412 108.583 29.0464 108.874C25.5038 109.165 23.8004 111.364 23.8631 114.577C23.9258 118.323 26.277 120.572 30.0705 120.502C33.519 120.431 35.6927 118.343 35.9644 115.662V115.652Z" fill="#3F73CE"/>
<path d="M63.7684 78.4707C61.9184 79.1207 59.7784 78.8107 58.1684 80.2307C52.9284 78.4707 47.7384 76.5007 42.4284 75.0107C34.3484 72.7407 27.0184 68.8307 19.7384 64.8707C6.76843 57.8107 0.648425 45.1407 3.82843 32.7707C6.22843 23.4207 13.9484 17.6207 23.5684 17.9007C26.8684 17.9907 30.0684 19.1407 33.4684 18.6107C35.2984 18.3307 36.5784 19.6407 37.0484 21.4507C37.5784 23.4507 36.8684 25.0707 35.2184 26.2307C33.6484 27.3407 31.7384 27.2907 30.6184 26.0107C26.4184 21.2207 20.7384 22.2607 16.4184 23.9307C10.7184 26.1407 8.32842 31.8707 8.20842 38.1907C7.98842 49.5607 17.5584 61.8807 29.8384 64.1807C37.7684 65.6607 45.0684 68.7307 52.6884 70.9207C57.0184 72.1707 59.5784 71.6007 62.1384 67.5007C66.2284 60.9407 70.0484 54.2207 75.1884 48.2407C82.7984 39.3907 83.4184 24.3307 76.6284 15.2507C70.3484 6.86072 59.4684 5.03072 52.3584 13.3107C51.0584 14.8307 50.6284 16.4007 50.3884 18.2507C50.1184 20.4407 48.8984 22.0707 46.5684 22.1707C44.5984 22.2507 43.0584 21.2607 42.3684 19.2707C41.5784 17.0307 42.3784 15.3607 44.3384 14.2307C45.9884 13.2907 47.0484 11.8207 48.2284 10.4207C58.2484 -1.42928 72.6484 1.89072 80.7184 13.4807C88.2184 24.2607 86.8984 35.1407 81.8184 46.2307C76.9184 56.9207 71.6884 67.4207 64.0684 76.5307C63.7084 76.9607 63.8584 77.8107 63.7684 78.4707Z" fill="#B32E33"/>
<path d="M65.1506 81.1138C63.1679 81.8104 60.8745 81.4782 59.149 83C53.5332 81.1138 47.971 79.0025 42.2802 77.4057C33.6208 74.9729 25.7651 70.7825 17.963 66.5385C4.06285 58.9722 -2.49605 45.3935 0.912001 32.1364C3.48412 22.1159 11.7578 15.8999 22.0677 16.2C25.6043 16.2965 29.0338 17.5289 32.6776 16.9609C34.6389 16.6608 36.0107 18.0648 36.5144 20.0046C37.0824 22.148 36.3215 23.8842 34.5531 25.1274C32.8706 26.317 30.8236 26.2634 29.6233 24.8916C25.1221 19.7581 19.0347 20.8727 14.4049 22.6625C8.29612 25.0309 5.73472 31.1719 5.60611 37.9451C5.37033 50.1305 15.6266 63.334 28.7873 65.799C37.286 67.3851 45.1095 70.6753 53.276 73.0224C57.9165 74.362 60.6601 73.7511 63.4037 69.3571C67.787 62.3266 71.881 55.1247 77.3896 48.7159C85.5454 39.2312 86.2098 23.0911 78.9329 13.36C72.2025 4.36827 60.5422 2.40703 52.9223 11.2808C51.5291 12.9098 51.0683 14.5924 50.8111 16.5751C50.5217 18.9222 49.2142 20.6691 46.7171 20.7762C44.6058 20.862 42.9554 19.801 42.2159 17.6683C41.3693 15.2676 42.2266 13.4779 44.3272 12.2668C46.0955 11.2594 47.2315 9.68398 48.4962 8.18358C59.2348 -4.51625 74.6674 -0.958153 83.3162 11.463C91.3541 23.0161 89.9394 34.6764 84.4951 46.5617C79.2437 58.0183 73.6386 69.2713 65.4721 79.0347C65.0863 79.4955 65.2471 80.4065 65.1506 81.1138Z" fill="#B32E33"/>
</svg>
