<svg width="16" height="16" viewBox="0 0 16 16" fill="none" xmlns="http://www.w3.org/2000/svg">
<path d="M8.02647 8.2799C8.2247 8.70053 8.45097 9.11052 8.61246 9.54469C8.70915 9.80384 8.82422 10.0349 8.98667 10.2583C9.40054 10.8221 9.39087 10.8288 9.78249 10.2486C10.3665 9.38224 11.5763 8.9355 12.5229 9.22366C13.1601 9.41802 13.9018 10.2748 13.8293 10.9275C13.722 11.9031 13.0228 12.6574 12.0317 12.7763C11.2262 12.874 10.4681 12.7434 9.83374 12.1932C9.59973 11.9902 9.50594 11.995 9.2961 12.2745C8.75073 13.0045 8.57861 13.9405 7.9027 14.6029C7.41051 15.0864 6.90092 15.4393 6.20373 15.4954C4.91379 15.5999 3.84916 14.3505 4.01161 12.9272C4.05609 12.5375 4.14118 12.1797 3.91491 11.7794C3.69831 11.3964 3.9855 10.8927 4.39936 10.7109C4.81226 10.53 5.29864 10.6867 5.50654 11.0667C5.75795 11.526 5.64579 11.9583 5.19035 12.2696C4.99212 12.405 4.67785 12.3992 4.66915 12.7541C4.65658 13.253 4.54343 13.7462 4.89638 14.2074C5.44368 14.923 6.27721 15.1067 6.95409 14.5961C7.6271 14.0875 8.02647 13.3681 8.41906 12.6458C8.46548 12.5607 8.50609 12.4736 8.55057 12.3876C9.04082 11.4448 8.97217 11.0213 8.30206 10.1848C7.8969 9.68007 7.69964 9.05541 7.48497 8.44912C7.63968 8.31181 7.84758 8.34178 8.02647 8.27893V8.2799ZM11.379 12.1768C12.0665 12.1874 12.5171 12.0433 12.8604 11.6614C13.1911 11.293 13.251 10.7553 13.0354 10.3579C12.8101 9.94405 12.2367 9.69941 11.6517 9.7845C10.8297 9.90441 10.3578 10.4981 9.9111 11.1122C9.82214 11.235 9.8028 11.3636 9.95848 11.4864C10.4333 11.8616 10.9371 12.1555 11.3799 12.1749L11.379 12.1768ZM5.31799 11.6159C5.31218 11.2137 5.01049 10.9352 4.67785 10.9632C4.35005 10.9913 4.19242 11.203 4.19822 11.5125C4.20403 11.8732 4.42159 12.0898 4.7726 12.083C5.09171 12.0762 5.29284 11.8751 5.31799 11.6169V11.6159Z" fill="#3F73CE"/>
<path d="M8.1182 8.2799C8.32536 8.70226 8.56181 9.11394 8.73057 9.5499C8.83161 9.81011 8.95187 10.0422 9.12163 10.2664C9.55412 10.8325 9.54402 10.8393 9.95327 10.2568C10.5636 9.38678 11.8278 8.9382 12.8171 9.22754C13.4829 9.4227 14.258 10.283 14.1822 10.9384C14.0701 11.918 13.3394 12.6754 12.3037 12.7948C11.4619 12.8928 10.6697 12.7618 10.0068 12.2093C9.76229 12.0054 9.66426 12.0103 9.44499 12.2909C8.87507 13.024 8.69519 13.9638 7.98886 14.6289C7.47451 15.1143 6.94198 15.4687 6.21341 15.5251C4.8654 15.6299 3.75284 14.3755 3.9226 12.9462C3.96909 12.555 4.05801 12.1957 3.82155 11.7938C3.5952 11.4092 3.89532 10.9034 4.32781 10.7208C4.75929 10.5393 5.26757 10.6965 5.48483 11.0781C5.74757 11.5394 5.63035 11.9733 5.1544 12.2861C4.94725 12.4219 4.61884 12.4161 4.60974 12.7724C4.59661 13.2734 4.47838 13.7686 4.84721 14.2318C5.41915 14.9503 6.2902 15.1348 6.99755 14.6221C7.70086 14.1114 8.1182 13.389 8.52847 12.6637C8.57697 12.5783 8.6194 12.4909 8.66589 12.4045C9.17822 11.4577 9.10647 11.0325 8.4062 10.1927C7.9828 9.68582 7.77665 9.0586 7.55232 8.44981C7.714 8.31194 7.93126 8.34204 8.1182 8.27893V8.2799ZM11.6216 12.1928C12.3401 12.2035 12.811 12.0588 13.1697 11.6753C13.5153 11.3054 13.578 10.7655 13.3526 10.3664C13.1171 9.95089 12.5179 9.70524 11.9066 9.79069C11.0476 9.91109 10.5545 10.5072 10.0877 11.1238C9.9947 11.2471 9.97449 11.3762 10.1372 11.4995C10.6333 11.8763 11.1598 12.1715 11.6226 12.1908L11.6216 12.1928ZM5.28779 11.6297C5.28173 11.2258 4.96645 10.9461 4.61884 10.9743C4.27628 11.0024 4.11157 11.215 4.11763 11.5257C4.12369 11.888 4.35105 12.1054 4.71787 12.0987C5.05133 12.0918 5.26152 11.8899 5.28779 11.6306V11.6297Z" fill="#3F73CE"/>
<path d="M7.97633 8.03435C7.79744 8.0972 7.59051 8.06723 7.43483 8.20454C6.92814 8.03435 6.42628 7.84386 5.91282 7.69978C5.13151 7.48028 4.42272 7.10219 3.71876 6.71927C2.4646 6.03659 1.87282 4.81144 2.18031 3.61529C2.41239 2.71118 3.15889 2.15033 4.08911 2.17741C4.40821 2.18611 4.71764 2.29731 5.04641 2.24606C5.22337 2.21899 5.34714 2.34566 5.39259 2.52068C5.44384 2.71408 5.37518 2.87073 5.21563 2.98289C5.06382 3.09023 4.87913 3.08539 4.77083 2.96162C4.3647 2.49844 3.81546 2.59901 3.39773 2.76049C2.84655 2.97419 2.61545 3.52827 2.60385 4.13939C2.58257 5.23884 3.50796 6.43015 4.6954 6.65255C5.46221 6.79566 6.1681 7.09252 6.90493 7.30429C7.32363 7.42516 7.57117 7.37004 7.81872 6.97358C8.21421 6.33925 8.58359 5.68945 9.08062 5.1112C9.81648 4.25543 9.87643 2.79917 9.21986 1.92116C8.6126 1.10987 7.56054 0.932918 6.87302 1.73357C6.74731 1.88055 6.70574 2.03236 6.68253 2.21125C6.65642 2.42302 6.53845 2.58063 6.31315 2.5903C6.12265 2.59804 5.97374 2.50231 5.90702 2.30988C5.83063 2.09328 5.90798 1.9318 6.09751 1.82253C6.25706 1.73163 6.35956 1.58949 6.47366 1.45411C7.44257 0.308255 8.835 0.629289 9.61535 1.75001C10.3406 2.7924 10.2129 3.84447 9.72172 4.91684C9.2479 5.95053 8.74217 6.96585 8.00534 7.84676C7.97053 7.88834 7.98504 7.97053 7.97633 8.03435Z" fill="#B32E33"/>
<path d="M8.11001 8.28991C7.91829 8.35727 7.69653 8.32514 7.52967 8.4723C6.98664 8.28991 6.4488 8.08575 5.89851 7.93135C5.06117 7.6961 4.30155 7.2909 3.54711 6.88052C2.203 6.14888 1.56878 4.83586 1.89833 3.55394C2.14704 2.58498 2.94708 1.98392 3.94402 2.01293C4.286 2.02227 4.61762 2.14143 4.96997 2.08651C5.15962 2.05749 5.29227 2.19325 5.34098 2.38083C5.3959 2.58809 5.32232 2.75597 5.15132 2.87619C4.98863 2.99122 4.79069 2.98604 4.67463 2.85339C4.23937 2.35699 3.65074 2.46477 3.20305 2.63784C2.61235 2.86686 2.36467 3.46067 2.35223 4.11562C2.32943 5.29391 3.32119 6.57065 4.59379 6.80901C5.41559 6.96238 6.1721 7.28054 6.96177 7.50749C7.4105 7.63703 7.67579 7.57796 7.94109 7.15307C8.36494 6.47324 8.76082 5.77684 9.29349 5.15713C10.0821 4.23998 10.1464 2.67928 9.44272 1.73831C8.79191 0.86884 7.66439 0.679194 6.92757 1.53726C6.79285 1.69478 6.74829 1.85748 6.72342 2.0492C6.69544 2.27616 6.56901 2.44508 6.32755 2.45544C6.12339 2.46374 5.9638 2.36114 5.89229 2.15491C5.81043 1.92277 5.89333 1.74971 6.09645 1.6326C6.26744 1.53519 6.37729 1.38285 6.49958 1.23777C7.53797 0.00973278 9.03026 0.35379 9.86657 1.55488C10.6438 2.67203 10.507 3.79955 9.98057 4.94882C9.47277 6.05664 8.93078 7.14477 8.1411 8.08887C8.10379 8.13342 8.11934 8.22151 8.11001 8.28991Z" fill="#B32E33"/>
</svg>
